<svg width="120" height="100" viewBox="0 0 120 100" fill="none" xmlns="http://www.w3.org/2000/svg">
<g id="triangles" clip-path="url(#clip0_2_2)">
<g id="light">
<path id="light1" opacity="0.7" d="M43.5229 49.7198C44.9743 50.4629 44.9743 52.5371 43.5229 53.2802L10.1615 70.361C8.83063 71.0423 7.25 70.0758 7.25 68.5807L7.25 34.4193C7.25 32.9242 8.83063 31.9577 10.1615 32.639L43.5229 49.7198Z" fill="#74EAE3"/>
</g>
<g id="dark">
<path id="dark2" opacity="0.7" d="M43.5229 49.7198C44.9743 50.4629 44.9743 52.5371 43.5229 53.2802L10.1615 70.361C8.83063 71.0423 7.25 70.0758 7.25 68.5807L7.25 34.4193C7.25 32.9242 8.83063 31.9577 10.1615 32.639L43.5229 49.7198Z" fill="#635BFF"/>
<path id="dark1" opacity="0.7" d="M56.5229 49.7198C57.9743 50.4629 57.9743 52.5371 56.5229 53.2802L23.1615 70.361C21.8306 71.0423 20.25 70.0758 20.25 68.5807L20.25 34.4193C20.25 32.9242 21.8306 31.9577 23.1615 32.639L56.5229 49.7198Z" fill="#635BFF"/>
</g>
</g>
<defs>
<clipPath id="clip0_2_2">
<rect width="120" height="100" fill="white"/>
</clipPath>
</defs>
</svg>
